<?xml version="1.0" standalone="no"?>
<!DOCTYPE svg PUBLIC "-//W3C//DTD SVG 20010904//EN"
 "http://www.w3.org/TR/2001/REC-SVG-20010904/DTD/svg10.dtd">
<svg version="1.0" xmlns="http://www.w3.org/2000/svg"
 width="16.000000pt" height="16.000000pt" viewBox="0 0 16.000000 16.000000"
 preserveAspectRatio="xMidYMid meet">
<metadata>
Created by potrace 1.11, written by Peter Selinger 2001-2013
</metadata>
<g transform="translate(0.000000,16.000000) scale(0.002286,-0.002286)"
fill="#000000" stroke="none">
<path d="M570 4660 c1 -2182 2 -2300 19 -2395 47 -252 150 -452 324 -624 100
-99 202 -176 370 -278 71 -43 179 -109 240 -147 62 -37 126 -76 142 -86 17
-10 127 -77 245 -150 118 -73 228 -140 243 -149 23 -13 111 -67 407 -250 8 -5
196 -122 416 -261 221 -138 417 -255 435 -260 51 -15 103 -12 156 8 27 10 167
94 313 186 146 92 274 173 284 179 11 7 45 28 75 47 59 36 63 39 133 81 24 14
169 103 323 198 154 94 287 176 295 181 107 65 228 138 249 150 14 8 51 31 81
50 30 19 64 39 75 45 48 28 445 270 490 300 308 205 456 418 520 750 14 77 17
377 18 2472 1 1489 -1 2243 -8 2244 -5 1 -1323 3 -2928 3 l-2917 2 0 -2296z
m2995 905 c42 -99 92 -220 111 -270 64 -162 87 -220 94 -228 5 -6 449 116 658
182 55 17 63 17 58 4 -4 -9 -83 -153 -176 -320 -94 -167 -171 -308 -173 -314
-2 -9 265 -199 553 -395 l61 -42 -73 -12 c-40 -6 -86 -14 -103 -17 -16 -2 -41
-6 -55 -8 -64 -9 -188 -29 -247 -40 -16 -3 -44 -8 -63 -11 -19 -3 -41 -7 -48
-9 -7 -3 -31 -7 -55 -10 -90 -13 -82 -3 -81 -91 0 -67 9 -247 19 -414 2 -25 6
-92 9 -149 l7 -104 -38 33 c-21 18 -56 49 -78 69 -22 20 -119 106 -215 191
-96 85 -177 157 -180 160 -44 46 -46 46 -102 -2 -29 -25 -65 -56 -79 -69 -73
-68 -274 -244 -431 -377 -16 -14 -17 -11 -13 34 2 27 7 101 10 164 3 63 8 142
10 175 2 33 7 110 10 170 4 61 8 127 9 148 3 39 -5 49 -39 54 -11 2 -130 21
-265 44 -135 22 -256 42 -270 44 -81 13 -160 27 -160 30 0 2 50 37 341 235 83
56 267 180 277 186 5 3 -42 88 -152 278 -48 82 -101 173 -117 204 -17 30 -46
80 -64 111 -18 31 -29 57 -25 59 5 2 96 -23 202 -56 106 -33 218 -67 248 -75
131 -37 252 -68 255 -65 2 2 28 64 58 138 60 146 185 451 212 514 9 21 18 37
20 35 2 -2 38 -85 80 -184z m1205 -2669 c105 -23 163 -94 162 -200 -1 -75 -22
-127 -64 -159 -71 -53 -21 -51 -1363 -51 -1170 0 -1253 1 -1302 18 -101 34
-147 127 -121 249 13 63 59 110 124 127 39 10 281 14 1132 16 596 1 1085 4
1087 6 7 6 311 1 345 -6z"/>
</g>
</svg>
