<svg id="coas" xmlns="http://www.w3.org/2000/svg" viewBox="96 -190.8 792 580.8"><style>.st0{fill:#2c353b}</style><path class="st0" d="M363.1 274.7c-.5.9-1.2 1.6-2.1 2m20.6-147.1c2.2 0 3.9-1.7 3.9-3.9s-1.7-3.9-3.9-3.9c-2.1 0-3.9 1.8-3.9 3.9.1 2.2 1.8 3.9 3.9 3.9zM561.4-34.2l-139.8-.1v.1l.1 112.9c0 10.9 4.6 20.4 11 23.4l53.8 32.1c1.2 1.3 2.9 2.2 4.9 2.2 1.7 0 3.2-.7 4.4-1.7l54.6-32.6c6.4-2.9 11-12.5 11-23.4V-34.2zM468.1-1.6H456v-28.9h12.1v28.9zm-8.8 10.1l1.7-1.8-1.1-2 2.3.2 1.3-2.4 1.4 2.4 2.3-.2-1.1 2 1.7 1.8-2.2.4v2.4l-2.1-1.5-2.1 1.5V8.9l-2.1-.4zm-33.8 36V17.1h14.7v27.4h-14.7zM428 4.8l2.2.2 1.4-2.4 1.3 2.4 2.3-.2-1.1 2 1.7 1.8-2.2.4v2.4l-2.1-1.5-2.1 1.5V9l-2.2-.4 1.7-1.8-.9-2zm16.5 27.9l2.3.2 1.4-2.4 1.3 2.4 2.3-.2-1.1 2 1.7 1.8-2.2.4v2.4l-2.1-1.6-2.1 1.6v-2.4l-2.2-.4 1.7-1.8-1-2zm9.8-22.1c-.1-.7-1.1-.9-1.5-.9-1.3 0-1.8 2.2-2.9 2.2-.8 0-1.4.1-1.4-.9 0-.7 1.6-1.3 2.3-1.9-9.1 0-9.2 4.1-10.6 4.1-2.4 0 2-4.4 3.2-5.6-1.8-.3-2.9-2.6-4.9-3.7 1-1.4 1.5-.8 2.7.2 0-1 .7-2.1 2.9-2.1 4 0 2.9 3.9 3.6 3.9s0-3.9 2.7-3.9c4 0 9 10.3 4.5 10.3-2.2 0-.6-1.4-.6-1.7zm-10.4-30.2l1.7-1.8-1.1-2 2.3.2 1.4-2.4 1.3 2.4 2.3-.2-1.1 2 1.7 1.8-2.2.4v2.4l-2.1-1.5-2.1 1.5v-2.4l-2.1-.4zm-3.7-10.9v28.9h-14.7v-28.9h14.7zm27.9 149.2l-33.5-20c-5.6-3.8-8.3-10.5-9.1-18.6V48.3H468v70.4h.1zM456 44.5V17.1h12.1v27.4H456zm55.1 76.5l-15.5 9.2h-.3c-1.1.9-2.5 1.4-4.1 1.4s-3-.6-4.1-1.5l-15.4-9.2V48.2H511V121h.1zm0-76.5h-39.3v-74.9h39.3v74.9zm46.3 35.6c-.7 8.1-3.5 14.8-9.1 18.6l-33.5 20V48.3h42.5v31.8h.1zm0-35.6h-42.5v-74.9h42.5v74.9z"/><path class="st0" d="M465.8 74.2c-.2-.5-5.3 1.7-3.9 1.6.1-1.5 3-4.6 4.3-5.7-.2-1.8-2.5-.2-4.9 1.1 8-11.4 2.9-6.7-1.6-5.9 7.1-7.6 5.3-7.5 0-5.1 4.1-3.3 5-7.1 4.4-8.3-3.9 5.1-7.4 4.3-7.4 9.1 0 3.1-1.1 8.3-2.8 10-2.1 2.2-.5-8.4-5.9-8.4-1.7 0-5.9-.1-7.1 2 1.1 0 2.8 2.8 2.8 4 0 1.1 1 4.2-.8 4.2-1.9 0-4-3.9-4-5.8s-.1-1.4-.1-4.1c0-4.5-7.3-10.9-10.3-10.9 0 3.1 4.1 3.9 4.1 7.9-1.8 0-4.2-3.3-4.2-1.3s2.6 2.4 2.6 4.1c0 1.8-3-.6-3 1.3 0 1.7 1.6 1.4 2 3-1.2-.3-2.3-.2-2.5.4-.2.5.3 1.2 1.3 1.8-.4.4-.8 1.3-.8 4 0 8.9 5.6 13.1 9.7 13.1 2.9 0 2.5-2 2.8-3 .1 1.5 1.6-.8 1.6 1.9 0 2.8-2.8 1.5-2.8 3.9 0 3.2 4.5-.1 4.5 3.4 0 4.3-.5 4.2-.5 5.8 0 1.1 4.7-1.6 4.4-2.1 1.1.4 1.1 3.7 3.2 3.6 1.3 0 1.6-3.4 2.7-3.7-.6.2 4.2 3.2 4.2 1.7 0-4.1-1.7-2.4-1.7-5.2 0-2.6 5.8-2.1 4.8-3.5-.8-1.1-1.3-.4-1.9-2.4.1.4-4.5-6.6 1-3 5.4 3.7 6.1-8.9 5.8-9.5zm149.1 29.5c2.6 0 4.6-1.8 4.6-4s-2.1-4.1-4.6-4.1-4.6 1.8-4.6 4.1c0 2.2 2.1 4 4.6 4zm-18.6 11c2.5 0 4.6-1.8 4.6-4.1 0-2.2-2-4-4.6-4-2.5 0-4.6 1.8-4.6 4 0 2.3 2.1 4.1 4.6 4.1zm-220.9 25.5c2.5 0 4.6-1.8 4.6-4s-2.1-4.1-4.6-4.1-4.6 1.8-4.6 4.1c0 2.2 2 4 4.6 4zm14.3 1.2c2.5 0 4.6-1.8 4.6-4.1 0-2.2-2-4.1-4.6-4.1-2.5 0-4.6 1.8-4.6 4.1s2.1 4.1 4.6 4.1zM787.4-51.3c6.8 8.1 8.3 21.1 3.4 30.4-2.7-.2-2.2-3.7-2.7-5.6-4.9-9.1-8.8-20.6-4.4-30.9 3.2.4 2 4.4 3.7 6.1zm-583.6 11c-1.5 5.9-1.5 14 0 19.4-1.2 1.2-1-1.2-2.2-1-9.5-6.9-5.1-20.4-7.6-30 .5-.7 1.7-1 2.4-.5 4.5 3 6.5 7.2 7.4 12.1zm604.6.8c1.4 2.7-1.2 5.4-3.2 6.6-2.2.5-4.6-.7-6.1-2.7-.7-2.7.7-5.2 2.9-6.4 2.5-.2 4.9.2 6.4 2.5zM189-28.7c-.5 2.2-1.2 4.4-3.2 5.4-1.5 0-3.7 0-4.6-1.2-1.5-1.2-1.7-3.4-1-5.2 1-1.7 2.9-2 4.6-2.2 1.7.7 3.4 1.2 4.2 3.2zm628.9 4.1c.5 1.5.5 2.5 0 3.9-1.7 2.2-4.1 3.2-6.6 2.2-1.7-1-2.2-2.7-2.7-4.2.5-2 2.4-3.7 4.1-4.4 2.3.1 3.7 1.3 5.2 2.5zm-13.9.3c1.9 1 .5 3.4.2 4.9-1.2 1.2-2.9 3.2-5.1 2.5-1.2-1.2-2.7-1.2-3.2-2.9 0-2.5 1-4.9 3.4-5.6 2-.6 3.3.3 4.7 1.1zm-17.8 3.7c0 2.7.2 6.2-2.9 6.6-2.9 1-4.9-1.5-5.6-3.4-.2-2.5 1.2-4.9 3.7-5.9 1.9 0 3.6 1.2 4.8 2.7zm-570.7 1.2c.7 2.5-1.7 3.9-3.2 5.2-1.7.5-3.9-1-4.9-2.7-1.7-1.7.5-3.2 1-4.7 2.5-2.2 6.2-.5 7.1 2.2zm-14.6.7c0 2-1 3.9-2.7 4.7-2 .7-3.9-.7-4.9-2.2-1.2-2.4.3-4.7 2.2-5.6 2.7-1 4.4 1.4 5.4 3.1zm526.3 1c2.4 5.1 4.4 11.3 4.9 17.7-1 4.7.7 10.8-2.7 14-3.4-1.2-3.6-5.4-5.8-7.6-4.4-8.6-.5-18.7 1-27 1.9-.8 1.9 1.7 2.6 2.9zm-537.8 3c.7 2.9-1.4 4.4-3.2 6.1-2.9.7-4.9-1.5-6.1-3.4-.2-2.4 1.2-4.9 3.2-5.9 2.5-.3 4.9.9 6.1 3.2zm576.3 7.1c3.2 7.1 3.4 15.7 1.2 23.6l-1.5 1.2c-3.4-6.6-8.3-12.8-10-19.9 0-5.2 1-9.8 2.9-14 1.7-1.2 2.7.2 3.4 1.7.4 2.7 1.6 5.9 4 7.4zm30.8-4.4c-.2 2.5-1.2 5.2-3.7 5.9-2.4.5-4.8-.2-5.6-2.9-.7-2.5.7-4.7 2.7-5.9 2.7-1.6 5.3.9 6.6 2.9zM201.2-4.4c0 2-1.7 4.2-3.7 4.7-1.9 1.5-3.4-1-5.1-1.7-.7-2-1.2-3.7 0-5.6.7-1.5 2.4-1.5 3.9-2 2.2 1.1 4.4 2.1 4.9 4.6zm10.7-1.3c1 2.4-1.7 3.7-2.7 4.9-2.9 1-4.4-1.2-5.6-2.9-.5-2.5 1-3.9 2.7-5.4 2.9-.7 4.4 1.2 5.6 3.4zm591.4-.7c-.2 3.2-5.1 6.4-5.6 9.6-2.7 6.6-8.5 11.5-15.1 13.8-1.4 1.2-3.4 2.9-5.6 3.2-.5-4.9 3.9-9.3 6.6-13.7 5.1-6.8 12.1-10.9 19.7-12.9zm-607 10.3c3.7 4.2 5.6 7.9 10 11.5.3 1-.5 2.5-1.7 2.5-12-.7-20-13-25.9-21.6.7-2.7 3.9-.5 5.6-.7 4.2 3.2 8.8 4.1 12 8.3zm610.4 3.4c-.5 10.6-5.6 21.4-15.1 26.5-2.7 1-5.6 3.7-8.3 2 5.1-10.6 12.9-19.1 21.5-28.5h1.9zm-46.8 7.2c.7 3.7-1.2 5.9-4.2 7.1-2.7.2-4.4-2-5.6-3.9-.2-2.4 1.2-4.7 3.4-5.4.7-.7 1.9-.7 2.9-.7 1.5.4 2.3 1.6 3.5 2.9zm-577 2.2c4.6 3.2 8.8 7.6 13.2 11.5-3.1 2.2-7 .2-10.7.2-8.3-2.9-13.9-10.1-22.4-12.5.3-2.7 3.4-1.7 5.1-2.5 5.3-.4 9.7 2 14.8 3.3z"/><path class="st0" d="M444-56c-13.7-5.4-22.7 8.8-36.6 7.1-1.7 1-1.2 2.7-2.2 3.9-.7.7-2 .2-2.7-.2-.7-5.9-2.7-11.3-3.4-17-1.4-2.4-.7-5.9-1.9-8.3-7.8-21.4 19-5.2 24.4-17.7 4.6-10.8-9-12-13.2-19.6v-3.2c-3.9-3.9-8.1-5.2-10.5-10.3 1.7-6.1 2.4-12.8.7-18.9-.2-1.5-1.2-3.4-3.4-2.7-4.6 6.4-8 11.5-12.4 17.7-4.6-3.4-9-7.9-14.4-10.8-3.7-.5-7.1-4.2-11.2-2.7-.7 1.5 0 2.7.7 3.7.2 9.6 5.1 17.2 11.9 24.1l.7 3.7c-4.4 10.1-3.2 21.6-4.4 32.4-11 28-28.8 55-52.9 74.4-13.9 15.7-30.5 30.9-32.7 52.5-.7 3.4.5 7.6-2.2 10.1-8-3-16.1-6.9-22.7-12-11.2-7.9-27.3-6.9-34.6-21.1-3-5.6.7-11.3 3.4-15.5 8.3-7.9 7.1-21.9 2.7-31.4-1-.3-1.2 1-1.9 1.2-.7 14.5-12.2 24.5-7.8 40.5 1 4.7 3.4 7.6 4.6 12-1.7-.5-4.1-.5-5.6-1.2-5.4-.7-10.7-3-16.3-2.2-11.2 5.2-26.6-1.2-35.6 9.1-1.5.3-3.4.5-2.9 2.7 5.4 0 10.5 1.5 15.9 1.2 8.5 1.5 14.1-5.7 20-8.8h1.5c2.4-2.5 6.6-1 9.8-1.5 15.4 1.7 27.3 9.1 40 16.7v1c-4.9 2.2-10.5 3.7-15.4 6.4-5.6 4.2-11.9 9.6-13.6 16.5-3.9 6.1 1.2 11.5 3.6 16.7.2 2.5.5 5.4 2.7 6.4 7.8-8.3.5-18.7 1.7-28.2 2-7.4 8.8-10.8 15.9-12.8 13.9-5.9 23.9 5.4 35.1 11.8-.3 11.3 1.2 22.1-1.2 33.1-3.4 1.2-7.8 2-11.5 1.7-19.2 1.5-34.4 12-51.7 17.9-7.8 2.7-17.1 2.5-24.9 5.4 6.1 1.7 12.4-.5 18.8-.7 23.9-3.4 42.2-21.9 68-18.7l.5.7c-2.9 6.1-6.8 11.3-11.4 16-.8-2.7-1-4.9-3.4-6.4-1.9-1-4.1 0-5.6 2-.8 1.2-.8 2.7 0 3.7 1.2 2.2 3.2 2.7 5.3 3.4-.5 2.2-3.2 3.2-4.6 5.2-6.8 11.5-20.8 6.9-28.8 15-1.2 1.7-5.6 2.7-3.7 5.4 9.3 1 18.3-1.5 25.1-6.4 9-10.1 18.5-19.6 27.5-29.2 1.5 7.9-.7 16-5.4 22.3-2.2-1.2-3.9-3-6.6-3.7-2.5.5-4.2 3-4.4 4.9 1 1.7 1.9 3.7 3.6 4.9-8.3 5.9-18.8 6.4-28.3 9.1-17.8 2.2-35.1 3.7-53.1 3.9-8.5-.5-18.3 2.5-26.3 0-9.3 1.7-19.3-1.2-26.8 3.9-1 1.2.3 2.5.3 3.7 11.2 7.4 26.6 1.5 39.3 3.7h96c7.1-.2 14.1-.5 19.8-3.7 12.4-7.1 19.2-19.9 25.6-32.4 2.4-4.4 4.1-9.6 5.1-14.7 2.4-8.4 10-14.3 18.3-15 1.2 12.8-1.2 25.5-4.1 37.3-1.5 7.9-6.6 15.5-3.4 23.8.7 3.9 4.9 3.9 8 4.4 29.5-.5 59-1.7 90.2.5 5.6 1 10.5 2.7 16.6 2.5.5-.7 2.2-1 1.5-2.5-.7-2.7-2.7-6.1-5.8-6.9-.5-1.5-2.7-1-3.4-2-15.6-8.8-34.4-4.2-52.7-3.9-9.5 1-19 2.7-27.1-2.7-3.7-4.4-1-18.4-1-18.4 0-5.5 13.4-44.2 15.1-47.4.5-3.7 1.9-7.1 1.5-11.3 1.9-4.9 1.5-11.3 1.5-16.7 1-7.9 4.9-15.2 7.6-22.8 1.4-3.7 2.7-7.6 4.1-11.3 1.5-4.7 2-9.1 4.9-12.8 7.9 5.1 15.7 4.9 19.5 13.9l3.4 20.5c0 1.2 1 3.7 2.7 2.2 6.3-4.2 4.4-13.5 4.4-19.9 1.4-7.6-3.9-11.3-6.1-17.9-1.7-1.2-4.5-7.1-4.5-7.1-1-5.4-12.8-9.1-10.1-15.8 1.5-5.6 2.9-10.8 8.3-14 .8.5 1.1 1.1 1.2 1.7l2.9-2.1.3-20.5c7.9 0 19.7 1 27.7 1 2.2.7 3.9 2.5 6.3 2.7l2-2.7 19.7-3.8c-8.5.9-13.6-8.7-21.5-8.7z"/><path class="st0" d="M465.4-47.3c.6-.1 1.2-.2 1.8-.4l-1.8.4zM253.1 21.1c.2 2.9-1.5 4.7-3.7 5.6-1.9-.7-3.4-1-4.6-2.9-1-2.7 1.5-4.7 3.4-5.7 2 .5 4.4.8 4.9 3zm-15.9 0c1.5 1.5 1.7 3.9 1 5.6-1.7 1.5-4.4 2.7-5.9.7-1.5-1.5-2.9-3.2-1.7-5.1 1.7-1.7 4.7-3.2 6.6-1.2zm339.4 2.7c.1.1.2.2.2.3M762.3 28c1 2.7-1.2 4.7-3.2 5.6-2.5-.7-5.6-1.2-5.6-4.4.2-2 1.9-3.2 3.7-3.7 2.2-.7 4.2 1 5.1 2.5zm12.9-.5c.7 1.2 2.4 3.2.5 4.4-1 .7-1.7 1-2.4 2-2.7.5-5.1-.5-5.8-2.9-.5-2.7 1.7-3.9 3.7-5.2 1.6-.5 2.8.7 4 1.7zM176 30.4c-1 2.9-3.4 4.2-6.6 3.2-.7-.7-1.5-2-2-3.2.2-1.7.7-3.4 2.7-4.2 3 .3 5.2 1.5 5.9 4.2zm82.2 4.2c-.3 2-2.5 3.7-4.2 4.7-2.5.2-4.1-1.7-5.4-3.4 0-2 1-4.4 2.9-4.9 2.8-1.1 5.7.9 6.7 3.6zm-14.4-1.7c.7.7 1.5 2.7.7 3.9-1.5 1.2-3.6 3.4-6.1 2-1.5-1.2-3.2-2.2-2.7-4.7 1-1 2.2-2.5 3.7-2.9 2-.5 2.9.7 4.4 1.7zm568.7 2.9c0 2-1.9 3.9-3.2 4.7-2 .7-4.1.3-5.4-1.2-1.4-.5-1-2.5-1-3.7 1.2-1.7 2.9-2.7 4.6-3.2 2.4.5 3.8 2 5 3.4zm15.7 2.2c-.7 2.2-2.4 4.2-4.6 4.4-1.5-.2-4.1-.7-3.6-3 0-1.7 1-3.4 2.2-3.9 2.3-1.1 5.2.1 6 2.5zm-624.4 3.5c.5 2.9-.5 4.9-2.9 5.9-1.7 1-3.4-.3-4.6-1.2-1.2-1.2-2.2-3.2-1.2-4.9.5-2.2 2.7-1.7 4.1-2.7 2.2.2 3.4 1.2 4.6 2.9zm12 2.2c.7 2-1.5 2.7-1.9 4.2-1.2.7-2.9 1.5-4.4.5-1.7-1.5-3.6-3.7-1.9-5.9 1.8-3.7 7-1.7 8.2 1.2zm582.4-1.2c.2 2.4-1.9 4.2-3.4 5.6-2.2.5-4.4-1-4.9-2.9-.2-2 1-3.4 2.7-4.7 2.1-.2 4.3 0 5.6 2zm20 3.9c-.5 2.2-.3 4.7-2.7 6.1-2 .5-4.4.2-5.9-1s-1.7-3.4-1-5.2c1.2-2 3.4-3.4 5.8-2.9 1.8 1 2.3 2.3 3.8 3zm-623.6 5.2c1 2-1.2 2.5-1.9 3.4-1.7 1-3.4.3-4.9-.5-1.7-1-1-3.4-.7-4.7 2.1-4.1 6.5-1.2 7.5 1.8zm608.2 4.6c1 .2.5 1.7.2 2.2-5.8 3-14.6 3.7-19.7-1-2.9-2.5-6.6-3.4-9.8-5.4 1.2-3.2 5.6-3 8.8-3.7 7.1 1 12.7 7.7 20.5 7.9zM206.3 54c.5 2-1 2.7-1.5 4.2-1 1.5-2.9 1-4.1.5-2.2-1.5-3.2-4.2-1.7-6.1 2.6-2.8 5.8-1.3 7.3 1.4zm21.4 1.5c1 2.2-.5 4.2-2.4 5.4-1.7 1-3.2-.5-4.6-.7-1.2-1.7-3.4-3.7-1.2-5.6 2.1-3.8 6.5-1.8 8.2.9zm281.9 10.4c-.5 4.9-8.6-.7-7.4 5.8 1.2 4.7 2.1 10.3 4.9 13.7 2.3 3.3 1.1 8.4.9 12.4-2.1 3.5-5.6 6.1-9.3 7.9-7-.7-17.1 3.5-20.4-5.1-1.4-3.7-3.9-7.5-3.9-11.7.7-.5 1.6-.5 2.3-1.2 0-1.6-1.8-2.6-1.6-4.2 7.9-1.4-3.3-8.4 3.5-8.9 5.6 5.8 14.6 4 19.4 10.3 1.2.9 2.1 2.3 3.5 3-.9-5.8-3.7-11.7-4.6-18-.7-3.3.5-6.3 2.8-8.2 4.1-3.1 7.6 1.6 9.9 4.2zm-260.4-1.6c.7 2.5-1.2 3.9-2.7 5.2-2.2 1-3.4-1.5-4.4-2.7-.7-2.5 1-3.7 2.5-4.9 1.6 0 3.6.7 4.6 2.4zm150.4 2.5c2.9 9.6 1.9 19.4-2.9 27.5-.2 2 .5 5.1-2.2 4.9-6.6-9.1-1.7-21.8 1-31.4.4-2.5 3.4-3.5 4.1-1zm208.7 4.6c3.4 6.9 3.6 16 .5 22.8l-2 2c-2.7-5.6-4.9-11.3-5.6-17.4 1.2-4.4 2.7-8.4 2.9-13 3.4-.7 3.2 3.7 4.2 5.6zm-340.1 2.7c-1.5 2.9-5.6 3.7-8.3 5.6-5.9 4.4-14.4 5.4-21.7 4.2 6.3-8.8 16.1-14 27.8-11.5.5 1 1.7.5 2.2 1.7zM168 83c9 6.4 11.5 15.2 16.8 24.1.7 1 3.2 1.2 2.2 3.2-2 1.5-3.9-1.5-6.6-1-9.3-4.2-15.1-14.5-14.9-25.3.1-1 1.5-1 2.5-1zm430.7 7.6c.3 2.5-.2 4.9-2.2 5.6-2.7.7-4.9-.7-5.6-2.9-.7-1.7.7-2.7 1.2-3.9 2-2 5.4-1 6.6 1.2z"/><path class="st0" d="M701.6 103.6c0-4.7 1.2-9.1 1.7-13.5.7-1.5 1.2-3.2 1-5.1 5.9-7.9 17.8-5.4 27-4.7 3.7 2 8.3 1.7 12.2 2.7 1.7-1.2 4.2-1.5 6.1-1.2 7.8-4.2 2.7-13.3 3.2-20.4l-2.9-7.4c-.7-1.5-1.5-3.2-2-4.9-1.4-1.7-2.4-4.9-3.9-6.6-4.1-10.8-12.2-16.9-19-25.5C712.6.8 693-8.3 673.6-14.7c-19.3-6.6-38.8 2-56.1 8.1-5.3-1.5-8-5.6-9.5-10.3-1-9.3 1-18.4 4.6-26 .7-6.1 4.9-10.8 6.6-16.5 4.4-13.7 9-27.3 10-42.2.5-9.1-6.3-15.5-13.2-19.4-4.6-1.2-10-1-13.4 2.7-3.1 6.6-10 11.1-15.8 14.2-.5 4.2 4.6 1.5 6.3 2.9 5.4 1 11.5-.7 15.9 2.7.5 9.8-5.1 17.9-10.2 25.3-8.3 12.3-17.1 24.8-22.2 38.3l-1-1 1.2 60c7.8 12.9 17.5 27.7 32 32.6 7.8 6.4 17.5 14 28 8.3 5.6-1.7 6.1 6.1 8.8 9.3 2.9 9.1-3.6 15.5-4.1 23.8l-6.3 13.5c-7.3 14.2-13.9 29.5-25.1 41.5-3.6 0-5.8 3.9-9.5 4.2-2 2.7-5.9.7-8.3 1.7-7.6 3.2-18.3 1.2-23.4 8.3.5.7 1.2 1 1.9 1.2 14.9.2 31.5 1.2 47.3.5 1.9-.7 3.7-2.5 3.9-4.7-2.2-4.2.7-7.9 2.7-11 1.2-5.9 5.1-9.6 6.8-15.2 5.1-10.1 11-19.9 16.6-30l7.5-12.3c1.7-4.2 4.6-9.3 7.6-13.8 1.9-2 2.9-4.2 4.4-6.6.3-2.5-1-3.4-2.4-5.2 1.7-1.7 4.4-1.2 6.6-1.7 6.1 3.7 12.4 9.6 13.6 16.2l2.2 6.4 1 2.9-.5 8.1 1 7.6c1.2 11.8-1 23.8-2.2 35.6-4.1 14.2-20.5 12.8-32.2 16-2.9 2-8.5 1-8.5 5.9 14.1 3 30.7 1.2 45.8 1 2.4-1 2.9-3.2 4.1-5.4.5-3.2 3.7-5.9 2.7-9.3-2.7-3.4-.2-8.8-1-13.5.5-1.2.5-2.9 0-4.7 1.9-7.1 1.5-15.7 2.9-22.6l.9-9.1zm120-9.6c-7.8 11-16.1 23.6-29.7 27.5-1 0-1.9.5-2.4-.7 8.3-8.8 12.7-22.6 25.6-25.8 1.8-1 4.5-2 6.5-1zm-665.5 12.1c-1.2 1-.2 3.2-2.4 3.4-1.9 1-4.1-.3-5.1-2.2-1-2.5 1.2-4.9 3.2-5.4 1.8 1 3.8 1.7 4.3 4.2zm70.2 3.4c.7 2.2-1.7 2.2-2.9 2.7-10.2 3.7-20.7.3-28-7.1 0-1 0-2 1-2.2 9.9 2.4 21.6.5 29.9 6.6zm-56.8-3.2c.5 1 .7 2.7.5 3.7-1.5 2.2-3.6 2.7-6.1 2.2-1.5-.7-2.2-1.7-3.2-3.2.2-2.5 2.2-3.9 4.1-4.7 2 .3 3.4.8 4.7 2zm228.4 1.2c.5 2.2-1.5 3.7-2.9 4.7-2.2.5-4.1-.5-5.1-2-.8-1.7 0-4.2 1.7-4.7 2.1-.4 5.5-.2 6.3 2zm432.9 1c.7 2.4-1.4 3.7-3.2 5.1-1.5.7-3.2 0-4.6-.7-.3-1.2-1.7-2.2-1.2-3.9 1-2.2 3.2-3.2 5.6-3 1.2 1 2.2 1.3 3.4 2.5zm16.1-1c1.5 2.2.2 3.9-1 5.6-1 1.7-2.9 2.2-4.4 1.5-1.5-1.5-3.4-2.2-3.7-4.4 0-2 2.2-3.4 3.7-4.2 2.5-.9 3.5 1.5 5.4 1.5zm-701.1 7.1c.2 1.7-1.2 2.7-1.7 4.2-1.2.5-2.4 1.5-3.9 1-1.7-.8-2.9-2.2-3.6-3.9.5-2.2 2-4.2 4.4-4.9 1.9.5 4.1 1.4 4.8 3.6z"/><path class="st0" d="M659.2 114.6c.5 1 .3 2.2.3 3.2-1.5 2-3.4 3.7-5.8 2.4-1.5-1.5-3.2-2.9-2.4-5.2 1.8-2.6 6-3.5 7.9-.4zM185 118.3c-.5 1.7-1.2 3.4-3.4 3.7-2.2.3-2.9-1.7-4.1-2.7 0-2.2-.3-4.4 1.9-5.7 3-.9 5.6 1.5 5.6 4.7zm-23.3.5c.7 2.5-1 4.2-2.4 5.4-2.9 1-5.4-1.2-6.6-3.4.3-2.2 2-4.9 4.4-5.6 2.1-.1 3.3 2.4 4.6 3.6zm513.6-.5c.5 2.4-.3 4.9-2.7 5.9-2.9 1-5.4-1.5-6.6-3.4 1.2-2 1.5-4.7 4.4-5.1 2.2-.1 3.7.9 4.9 2.6zm-502.2 1c.7 1.7-.7 2.5-1.2 3.7-1.2 0-1.9 1.5-3.4 1-1-1.2-2.9-1.7-3.2-3.4-.2-2.5 1.5-3.7 3.2-4.7 2.4-.3 3.9 1.4 4.6 3.4zm644.3 2c-.7 2-2.2 2.9-4.2 3.9-1.9.5-3.2-1.2-4.6-2-1.2-1-.8-3.2-.2-4.4 2.4-4.2 9-2.2 9 2.5zm18.5 1c-.7 2.7-3.4 3.9-5.9 4.2-2.2-1-4.6-2.7-2.9-5.6 1-1 1.4-2 2.9-2.2 3-1.1 5.2 1.1 5.9 3.6zM720.2 124c1.2 3.2-1.7 4.2-3.7 5.6-1.7-.2-3.2-1-4.6-2-.5-2.7.7-5.2 3.4-6.4 2.2.1 3.4 1.1 4.9 2.8zm-67.1 2.9c1.2.5.7 2.2.5 2.9-1.5 1-3.4 3.4-5.6 2-1.7-1-3-2.5-2.5-4.7 1.3-2.6 6.4-2.9 7.6-.2zm13.7 1.7c.3 2-.2 2.9-2 3.9-1.7 1.7-3.7-.2-5.4-.7-.5-1-1-2.5-.3-3.7.7-1 2-1.7 3.2-2 1.8.6 3.7.6 4.5 2.5zm-413.7.3c1.5 1.5-.2 3.2-.5 4.7-1.2 1.5-3.9 2.7-6.1 1.2-2.4-1-2.2-4.2-1.7-6.1 1.5-.5 1.5-2.2 3.4-2.2 2.2.2 3.4 1.2 4.9 2.4zm493.1 1c.5 2.5-2 3.4-3.7 3.9-2.9 1-4.4-1.2-5.6-3.2 0-1.5 1.4-2.4 1.9-3.7 3.5-1.4 5.7 1 7.4 3zm-13.1 0c1 2.5-1.7 3.7-2.7 4.9-1.7.7-3.9.5-5.4-1-1.3-.7-1.3-2.2-1.3-3.7 1.5-1.2 2.2-2.7 3.9-3.2 2.3 0 4.5 1.3 5.5 3zm109.9 2.9c.5 3.4-3.9 1.7-5.6 2.7-10.2 6.1-23.4 1.5-33.2-2.2.7-3.2 4.4-2 6.3-3.2 10.5-6.6 21.2 1.5 31.7 2l.8.7zm-667.2-2.9l-1 1.7c-9 5.4-20.7 9.1-31.4 5.7l-1-1.5c9-6.6 21-8.3 32.7-6.6l.7.7zm595.3 1.7c0 2-1 3.7-2.4 4.7-2.4.7-5.6 0-6.3-2.7-.7-2 1.2-3.9 3.2-4.7 1.6 0 4.5.2 5.5 2.7zm-551.7 1c-1 2-.5 3.9-2.9 4.9s-5.4-1.2-6.1-3.2c-.7-2.7 1.2-3.4 2.4-4.7 3-1.4 5.2.8 6.6 3zm-17.3 1.2c.7 1.7-.7 2.7-1.2 3.9-1.2 1.5-3.4 1.2-4.9.7-1.7-1.5-3.4-3.2-2.7-5.9 1.5-1.2 2.2-2 3.9-2.7 2.3.6 4.4 1.5 4.9 4zm586.1 5.6c-.2 2.2-2 3.9-3.9 4.4-1.9.3-3.7-1.2-4.6-2.5-.7-1.5-.5-3.4 1-4.7.5-.7 2.2-.7 3.2-1.2 2.1.4 3.8 2.1 4.3 4zm-604.1-2.7c.8 2-1 2.7-1.2 4.2-.7 4.2-3.4 6.9-5.3 10.6-4.6 5.6-11.2 5.6-17.8 7.4l-1-2c7.1-9.1 14.6-16.2 24.6-20.6l.7.4zm591.9 5.4c.5 3-2 3.5-3.7 4.7-2.2 0-3.9-1.2-4.9-2.9-.7-2.7 1.7-3.7 3.2-4.9 2.4-.5 4.6 1.2 5.4 3.1zm-563.9 0c-.2.5.3 1 .7 1.2-.2 2.7-2.2 3.4-3.7 4.7-2.2 0-3.9-.7-5.4-2.4-1-2.2 0-4.9 2.4-5.7 2.4-.2 5.3 0 6 2.2zm608.7 7.4c2.4-.3 2.9-3.2 5.6-3.7 2.4-.5 4.6 1 5.8 2.7 1 3-1.2 4.4-3.2 5.7-1.7 1.2-5.4-1.5-5.1 1.7 1.7 1.2 3.2 2.9 3.4 4.9-.5 1-2.2.7-2.9.3-7.1-2.9-14.6-7.9-17.6-15.2-1-2.2-5.6-3.9-2.9-5.9 7.2-.6 13 5.1 16.9 9.5zm23.4-7.6c1.2 1.2.7 3.4-.2 4.7-1.2 2.5-4.9 1.5-7.1 1.2-1.2-1.2-2.4-2.5-2-4.4 1-1.5 2-2.4 3.7-3.2 2.2-.5 3.9.5 5.6 1.7zm-88.5 13.3c2.2 2.7 4.4 6.9 5.4 9.8-.5.7-1.7.5-2.2.5-8.3-4.7-19-9.8-22.2-19.6-.7-1-2.7-2.2-2.4-3.9 6.3-1.2 12.4 3.4 16.8 6.9 1.7 2.3 3.7 3.6 4.6 6.3zm-557.2-9.4c1 2.2-1 3.9-2.2 4.9-2.7.5-4.2-.5-5.6-2-1.7-2.7 1.5-4.9 3.4-5.9 1.9-.2 3.1 1.8 4.4 3zm587.7 5.7c.2 1.5-1.7 2.5-2.4 3.4-2 .2-3.9 1-5.6-.7-.5-1.2-1.7-3.2-.3-4.4 2.7-3.5 6.6-.8 8.3 1.7zm60.7 3.4c.7 2.9-1.5 4.9-3.4 6.1-2.4.7-4.4-1-5.8-2.2-1.2-1.5-.3-2.9 0-4.7 1.7-1.5 3.9-2.7 6.3-1.7 1 .8 1.9 1.3 2.9 2.5zm-168.7 33.9c0 3-5.4 2.2-7.6 4.4-7.6 3.9-16.6 3.9-25.6 3.7v-1.5c8.8-7.3 21.5-10 33.2-6.6zm-355.7 10.6c-.2 2.2-1.5 3.4-3.6 4.2-1.7 0-3.4-1-4.1-2.4-1-3 1.5-4.2 3.2-5.4 2.1.1 4.1 1.8 4.5 3.6zm351.6 2.7c-.5 2.2-1.2 4.7-3.7 5.6-2.2.5-3.6-.7-5.4-1.7-1.2-1-.5-2.7-.7-3.9 1.7-4.5 8.1-4.5 9.8 0zm48.5.9c-6.1 3.9-12.9 8.6-21 8.6l-13.2-.3-1.2-1c8.1-9.8 22.7-9.8 35.4-8.8v1.5zm-466.8 5.9c0 2.2-1 3.9-3.2 4.7-2.4.5-4.2-.5-5.1-2.2-1-2.2 0-4.4 1.9-5.6 2.7-1.8 5.4 1.2 6.4 3.1zm12.2 2.5c.7 1.2-.5 2-1 3.2-1.4.7-3.4 1.2-4.6 0-1.7-1-2.2-2.7-1.5-4.2s2.2-1.2 2.9-2.2c1.7.7 3.4 1.5 4.2 3.2zm-93.4 24.8c-2.4 2.9-6.3-.7-9-2.2-8.5-4.9-8.3-14.5-16.8-20.1 1-2.9 3.2.2 4.9-.2 1.5 1 3.4 2 5.1 2.7 8.2 4.6 10.2 12.4 15.8 19.8z"/><path class="st0" d="M885.2 140.9c-3.9-7.1-10.5-10.1-18.3-10.1-6.3.5-11 4.7-13.6 10.1-1.5 5.4.5 10.3 4.6 13.5 1.7.7 3.9.5 4.9-1.2 1.2-3.2-2.2-3.2-2.7-5.6-1-3.4.3-6.4 2.7-8.6 2.4-2.5 6.6-1.2 9.5-1.2 2.9 2 5.8 3.7 7.3 7.1 1.5 4.2 1.5 8.8 0 13-2.7 6.1-8.8 11-15.1 12.3-20.2 2.9-242.3 2-242.3 2-26.1 2.5-55.8-4.9-78.2 8.8-10.2 4.9-15.4 16.2-18.1 26.3-6.6 5.9-13.6 12.8-19 19.4l-.7-.7c1.2-5.9 3.9-11.1 5.1-17 3.7-4.9 3.7-11.5 6.3-16.9 9.3-15 18-30.2 32.4-40.8 6.1-8.1 16.8-6.6 26.1-6.6 10 4.7 21.7 6.1 33.9 4.9.5-.5.7-1 .7-1.7-3.4-3.2-9-4.4-12.9-7.6-9.8-4.7-19 1.5-29.3.7-.5-.5-1-.7-.7-1.5 9.3-6.9 19.8-11.8 30.2-16.2 8.5-4.7 17.6-7.1 26.6-10.6 3.7 0 7.1-3.2 10.5-1l12.9-3.4c.5.3 1 1 1.9.7 11-3.7 24.9-.3 37.3-.5l1.7 1.5 11.7 2.9c4.4.5 6.4 5.7 11 5.9 2.4-3.4-2.7-4.9-3.9-7.1 5.4-1.2 11.5.2 16.3 2.5l-2.4 2.7c-1.4 2.7.7 4.7 2.9 5.6 1.7.5 2.9-.7 4.1-1.2 3.2-2.2-.2-4.4.7-6.4 18.1 3.2 35.4 7.6 52 14.7 4.6 1.5 9 4.9 14.2 4.7-5.1-4.7-12.2-7.1-18.5-9.8-4.2-2.5-10-2.7-13.2-6.1.7-1.2 2.4-.7 3.2-1.7 8.3-1 15.4-7.1 21.2-13.8.5-1.5 3.2-1 2.9-2.9-2.2-2.5-5.8.7-8.8.5-10.2 2-14.6 14-24.9 16.2-12.4-3-25.1-5.9-37.5-9.1-6.1-1-12.7-1.5-18.3-3.9l-13.7-1.2H663c-.2-.5-1-.7-.7-1.5 8.8-2.2 16.3-7.4 25.1-9.6l65.3-30c6.8-6.1 12.9-13 18.5-20.1.2-2-1-3.9-2.7-4.7-1.7-.7-3.7-.5-4.9 1-2.9 2.2 0 4.9 0 7.6-2.9 3.9-7.6 7.4-11.2 9.6-1-.2-67.3 30.2-67.3 30.2-9.8 4.2-19.5 8.8-29.7 11l-14.1 2.2c-1 3-3.4 4.7-6.1 5.6-3.9.7-7.1 3.2-11.2 3.2-31.7 12.3-64.6 25.3-89.7 50.3 1.5-2.9 2.2-6.6 2.4-10.3-.5-3.7-.2-7.9-2.7-10.8-.6-1.3-2.4-5.3-1.8-6.7l-3.6 2.3c-2.2 5.4-4.1 15.2-1.9 20.9.7 4.4 4.4 9.6 1 13.5-11.7 14.2-18.3 31.4-26.1 47.6-2.9-.5-4.4-3.2-5.6-5.9 8.3-10.6 14.9-22.3 17.3-35.8 1.7-1.2.5-4.4 2.2-5.9-.5-3.9 2.2-7.9.3-11.1 1.6-5.3-7.1-10.3-1.6-13.7l-4.6 2.2c-10.5 13.8 5.4 34.4-6.5 47.6v1c-3.4 4.4-5.1 8.8-9.8 11.8-5.9-2.4-8-9.1-11.4-14-5.4-5.2-5.4-15.7-2.2-22.8 2.2-7.1-1.5-13.3-2.2-19.6l-2.4-1.5c-5.9 7.6-8 19.6-3.4 28.7 2.4 4.4 2.7 10.6 6.3 14.2 2.2 7.1 6.6 11.8 10.5 18.2 1 2.5-1.5 2.9-2.7 4.2-2.7-1.7-2.2-5.6-4.7-7.4-8-17.2-18.5-30.9-31.2-44.9-.5-2.2-2.7-4.2-1.5-6.6 4.6-4.4 5.6-13 3.2-18.7-.5-1.2-1.9-2.7-1.7-3.9l-3.6-2.9c.5 8.6-5.1 16.2-2.7 25.3v.5c-25.1-18.9-52.9-35.8-81.2-49l-2.2 6.2c7.1 1.8 26.1 13.3 26.1 13.3 8.5 3.2 16.3 8.3 24.4 13 33.2 18.4 55.1 48.9 70 82.8.3 2.7 2.7 5.6 1 8.3-5.1-7.9-12.4-12.3-18.5-18.7-1.7-11.5-8.5-22.6-18.5-27.3-3.7-5.4-11.5-5.9-17.6-7.6l-88.7-.5c-72.2-1-138 2.2-209.7 1-10-1-22.2-4.4-25.1-15-2-3.7-2-10.1 0-13.5 2.7-4.7 7.5-6.1 12.4-6.6 3.9.5 6.6 4.2 8.3 6.9 0 3.2-2.7 6.1-3.9 8.8.2 1 1.2 2.9 2.9 2.2 3.2-1.2 5.6-4.7 6.4-7.9.2-1.7 1-4.2-.7-5.4-1.5-5.2-6.8-8.8-11.5-10.1-6.1-.5-12.4 1.2-16.6 5.6-5.9 4.9-5.6 13.8-3.9 20.6 4 11 15.4 18.3 26.4 19.8l237.2 1c23.2 1.2 49.2-2.7 72.6 2 8.5 2.7 17.6 9.1 19.8 18.7-.3.5-1 .2-1.7.2-19.3-12.5-44.6-17.2-69.2-14.2-9.7-.5-18.5 3.2-27.3 5.6-4.6 1-9-1.2-12-3.9-8.8-7.8-24.1-7.4-35.3-4.4 0 .8-.3 1.5.2 1.7 11.9-1 19 9.3 29.8 10.6 2.4.5 4.4-2.2 6.6-.2-11.2 5.4-21.9 11.8-33.9 15.2-3.6-.7-5.6-4.2-8.5-6.1-4.6-5.1-13.1-2.9-19.5-3.4-2.2.5-4.1-1-5.6 0 1.9 3.9 6.3 6.1 10.5 8.1 6.1 2.7 13.2-.2 18.8 3.4-1.5 1.7-3.4 2.2-5.1 3.4-11.4 4.4-21 14.7-33.6 14-13.4 1.5-27-2.5-36.1-11.8-3.9-9.6-13.9-14.7-24.6-14.2-.7.5-1.7.5-1.5 1.7 5.4 3.2 9.5 9.6 14.9 13.3 3.4 4.2 10 0 13.2 4.7 4.6 3.2 10.5 5.9 15.8 6.9 3.9 1.7 8.3 2.5 12.7 3.5l-1.7 1c-22.2 7.4-47.8 8.1-72.6 7.1-7.3-.3-14.4-2.4-21.7-2.2 1.2 1.5 3.7 2.7 5.9 3.4-1.9 1.2-4.2 1.7-6.6 2-2.9.7-6.3 1-9.3 2.5-3.9-.2-7.3 1.2-10.5 2.4-4.1 4.4-9 9.1-13.9 11.3 0 1-.2 2.5 1 2.5 4.6-2 10.5-.5 15.1-2.5 8-.7 12.7-9.6 19-13.3 6.8-5.4 16.6-4.2 24.9-2.9 4.9 1.2-.5 3.2 1 6.4 2 1.7 3.7 3.7 6.4 2.9.5-.5 1-1 1.7-1.2 1.5-2 1.2-4.2.2-6.1 3.4-2.2 8.1.3 11.7-1.2 9.3-.2 18.5-2.2 27.6-2.5 1.5-.2 3.2-1.7 4.6-.2-.7 2-3.2 2.2-2.2 4.9.5 2.2 2.9 3.2 4.9 3.7 2.4-1 4.6-2.7 3.7-5.9-.5-1.7-2.4-2-3.7-2.7 5.1-2.5 11-3.2 16.1-5.6 3.7-.7 7.1-2 10.2-3.4 3.2-.2 5.8-3.2 8.8-2-1.2 4.2-2.9 8.1-5.1 11.8-3.9 13-6.8 30.2 0 42.7.7.2 1-.3 1.5-.5-5.1-13-2.2-28 2.2-40.3 3.4-20.9 24.9-27 40.2-34.9l.7 1c-4.1 10.8-10.2 21.1-9.3 34.1.5 2.2-1 4.4 0 5.9 4.1-2.2 6.8-7.1 9-11.3 1.7-11-4.6-24.8 6.6-32.9 20-7.9 38.8-18.2 61.9-18.4.7.7 2.4-.5 2.7 1-4.9 5.4-11.9 10.6-14.1 17.2-7.8 10.8-7.6 29.2-4.1 42.5 2.2 7.6-4.4 11.8-7.5 17.7-1.5 2.1-2 5.7-3.3 8.1l4.8.5c4.1-4.4 8-9.8 8.3-16.2.5 2.5 2.7 4.4 4.6 4.9 1.7-2.7-1.5-4.7-1.7-7.4 3.9-2.2 5.6 2.7 8.8 3.7 5.1 1.2 9.5 3.4 14.9 3.4l1.7-1.7c-5.4-8.3-16.1-9.8-25.3-10.3-4.9-8.1-4.9-18.2-4.4-28 1-5.2 2-10.6 4.9-15.2 1.2-3.4 4.6-6.6 6.8-9.3 4.4-4.2 10-7.1 15.4-8.3h.7c0 .5.2.7.2.7-6.6 5.1-7.3 12.3-11.2 18.7-4.1 6.1-6.1 14.5-2.2 21.4 1.5 3.2.7 8.1 4.1 10.3 3.2-4.4 3.4-10.1 5.1-15-.7-8.1-5.6-15.7-1-23.6 2.4-6.1 7.6-8.6 13.1-10.8 13.4-1.2 25.1 5.7 36.8 10.8 2.4 1.7 6.6 3.2 7.1 6.6-.3 6.6-3.9 13.3-9 16.5-6.6 3.9-16.1 4.4-22.2-.2-3.7-3.7-5.1-10.1-3.9-15 2.7-2.9 6.3-5.4 10.7-3.9 2.5 1.2 4.7 3.7 7.8 2.2 1.2-.7 1.7-2.7 1-3.9-2.7-1.5-3.6-5.2-7.3-5.6-4.6-.7-10.2-.5-13.4 2.7-5.1 4.4-7.1 11.1-5.6 17.2 1.7 7.9 7.6 13.5 15.1 15.7 11.2 2.7 22.9-.7 30-10.3 2.9-3.2 3.6-6.6 5.4-10.6 11.7 7.1 20.5 19.6 25.1 32.4 0 4.2 1.2 8.6.2 12.3l8.5.7c-.7-2 0-4.2.7-5.9 3.2-16.2 13.2-29.7 25.1-40.3 4.1-2.5 3.2 3.2 4.1 4.9 3.6 9.3 12.2 16 21.2 18.7 10.2 1.7 20-.7 26.3-8.6 3.2-5.9 7.1-14.5 1.7-20.6-3.4-4.2-8-6.4-13.4-6.4-6.4 0-10.2 4.4-13.4 9.1 0 2-.3 4.2 1.5 5.2 1 0 2.9.2 3.7-1.2.5-3.7 3.6-5.4 6.6-7.4 2.7-1.5 5.6 0 7.8 1.5 2.7 2.2 3.2 5.9 3.4 9.6-.5 4.7-3.7 9.6-8 11.5-7.1 3.7-17.3 2-23.4-2.2-2.9-3.2-4.6-6.9-6.8-10.8-.5-3.9-2-7.4 0-11.3 10.7-6.4 21.9-11 34.8-12.3 5.1 1 9.5 4.4 12.9 8.1 11.2 11.5-2.4 28 5.4 40.8 2.9-.5 2.9-4.4 4.1-6.9 3.7-8.8-1-18.4-3.2-27-2.9-5.4-4.6-10.1-9.3-14.5 1.2-.5 1.7-.5 2.9-.5 5.1 3.4 10.7 7.4 14.9 12.8 7.1 11.5 10.7 25.3 9.5 40.3-1.9 7.4-9.7 10.8-15.8 13.5-2.4 2-5.4 4.9-6.6 7.9 2.9 1.7 7.1 0 10-1.2 4.6-1.7 7.3-7.6 10.5-10.3.5.2.2 1 .5 1.5.2 2.7-1.2 6.4 1.2 7.1 1.2-3.4 1.5-8.3 2.2-12.5 3.2 3.5 3.6 7.9 4.6 12.3 2.2 4.4 5.8 10.3 11.7 11 1.5-2.2-.2-4.4-.7-6.4-.7-6.1-5.9-9.3-9.3-13.8-8.5-11.8-4.6-30.2-11.2-43.5-2.4-7.1-7.6-12.3-13.2-18.2l1-1c11.9-.2 22 3.7 32.9 5.9 13.4 6.6 32.9 5.2 39.3 22.6 2.7 9.8 7.1 18.9 13.9 26.5l.7-.5c1.5-2.4 1.5-6.6 0-9.1-1.5-12.3-12.2-15.2-17.8-25.5l.7-1c5.8 1.7 11.9 3.2 17.8 5.7 19.5 5.4 33.2 24.6 35.6 44.4 0 15.7-2.9 28.7-9 42-.8 2-4.1 4.2-2 5.9 2.7-2 3.2-5.2 4.6-7.4 8.1-13.5 12.2-32.2 8.1-49.4-.2-3.2-3.9-5.6-2.2-8.8 1.2 1.5 2.7 1.7 4.1 2.2 1.5-1 3.7-1 4.6-2.7.2-1.5 1.2-3.2 0-4.4-1.5-2.2-4.6-2.2-7.1-1.7-1.2 1.5-2.7 3.4-2.9 5.4-2.4-4.2-4.9-9.6-8.8-13l.5-.7c11 3.7 21 9.1 32.2 12 2.4 1.5 5.1 2.7 8.5 2.7 9.5 3.7 20 5.2 30 7.6 7.3-.7 13.4 2.7 20.7 1v-.5l-.2.2c-2.7-3.4-8.5-.2-11.7-2.7-16.8-1.7-32.9-6.1-48-12 .2-.7 1.2-.5 2-.5 2.4-1.2 4.1-3.4 3.9-6.1-1.2-1.7-3.2-2.7-5.6-2.7-1.5.7-3.4 2.4-3.6 4.2.2 2 1.9 4.2 3.6 4.7-.5.5-1.5.3-2.2.3-7.6-3.4-14.9-6.6-22.2-10.1-2.7-.5-4.9-2.7-7.6-3.2-5.6-2.7-11.2-5.4-16.8-7.6-15.6-8.1-32.9-12.5-49.5-18.4-3.7-1-7-2-10.5-3-6.1-1.7-12.2-3.2-18.3-4.9-20.7-5.1-48.5-5.6-66.6 5.7-2.9-1-4.6 3.7-6.1.7 5.1-13.5 20-17.9 33.4-18.4 97.7-1 189.4-1.7 285.7-3.2 11.2 0 22.2-3.9 28-14 4-6.6 4.8-16.6 1.6-23.3zm-387.6 90.6c-1 3-2.9 5.4-2.7 8.6l-1 .5c.7-3.7-2.9-5.9-1.9-9.8-2-2.9-2-6.6-3.7-9.8-2.2-3.9 1.9-5.6 3.7-8.3 3.4 1.5 4.6 4.7 7.1 7.6 1.4 4.1-1.8 7.3-1.5 11.2z"/><path class="st0" d="M762.1 216.1c0 .7 1.5 1 1 2.2-8.5 7.6-20.5 9.8-32.7 10.3-1 .2-2 1-3.2.7-.7-.5-1-1.2-.5-1.7 8.8-9.6 22.2-14.5 35.4-11.5zm-39.3 3.9c1 3.4-1.2 5.4-3.9 6.6-2.7-.2-4.1-2-5.4-3.9-.7-2 1-2.9 1.7-4.2 2-2 6.7-2 7.6 1.5zm-463.4.5c.5 1.7.2 3.9-1.2 5.2-1 1.2-3.2 1.5-4.4 1.2-1.7-.3-2.7-2.2-3.2-3.7 0-2.2 1.2-3.4 3.2-4.7 2 0 4.1-.2 5.6 2zm-43.6 15.9v1.7c-5.8 1.2-11.4-.2-15.8-3.7-3.4-4.9-7.3-9.8-12.9-12.3 0-.7-1.5-1.7 0-2.2 12.1.1 19.4 9.9 28.7 16.5zm583.3-16.2c-5.6 8.3-10.5 18.7-20.5 22.3-1.7 0-3.2 2.5-4.7.8 3.9-9.3 12.2-19.4 21.7-23.3 1.1 0 2.6-.3 3.5.2zm-525.6 3c.3 2.7-1.7 3.2-3.4 4.7-2 .2-2.9-1.2-4.2-2.7-1-2.5 1.2-3.4 2.5-4.7 2-.5 4.2 1 5.1 2.7zm556.3 1.4c-2.2 3.2-1.2 7.9-3.4 11.3-4.9 5.6-9 12-16.8 13.3-1.2-2.4 1.7-4.9 2.9-7.1 3.4-7.4 8.3-15.7 16.1-18.9l1.2 1.4zm-689.6 2.3c.7 1.7 1.5 3.4 0 5.4-1.4 1.2-3.6 1.7-5.6 1-2.2-1.2-2.9-3.9-1.9-5.9 1.4-2.3 5.8-3.5 7.5-.5zm-13.9 2.9c.3 1.2 1 2.2.7 3.4-.7 1.2-1.9 2.7-3.4 3-2.7.5-4.4-1-5.6-3.2-.3-2.2.5-4.2 2.4-5.2 2.3-.9 4.7.3 5.9 2zm28.8 1.5c.5 2 1 5.4-1.9 5.9-3.4 1.5-5.4-1-7.3-2.9 0-2.2 1.2-3.9 2.9-4.9 2.4-.3 4.6-.1 6.3 1.9zm40 3.2c-.3 1.7.2 4.2-1.7 4.7-1.2 1.2-3.4.7-4.6.5-.5-1.5-3.2-2.7-1.7-4.4 1-1.2 2-2 3.4-2.7 1.4.6 3.6-.1 4.6 1.9zm658.2 1.7c-.7 1.7-1.7 3.9-3.7 3.9-2.2-.2-4.4-.5-5.6-2.7-1-2.7 1.2-4.2 3.2-4.9 2.4 0 5.6 1 6.1 3.7zm-44.6 1.2c.2 2-2 3.5-2.9 4.2-3.4 1.5-6.3-1-7.6-3.7.5-2.2 2.2-3.7 4.1-4.4 3.2-.3 4.9 1.5 6.4 3.9zm30.2-.5c0 1.7-1 3.4-2.2 4.2-2 .7-4.4.5-5.9-1-2.2-2-.5-3.7 1-5.2 2.2-1.2 6.3-.9 7.1 2zm-705 4.2c.5 2.7-.5 5.1-2.9 6.1-2.2 0-4.6-1.2-5.4-3.4-.2-2.2.5-4.4 2.4-5.2 2.4-.7 4.4.8 5.9 2.5zm662.6 2.7c.7 2.7-.7 5.2-3.4 6.4-2 .5-3.2-.5-4.6-1.7-1-1.2-2.2-3.9-.2-5.1 1.8-3.8 6.7-2.3 8.2.4zM265 246.5c1 2.7-1.9 3.2-2.7 4.7-1 .5-2.9.7-3.7-.2-1.2-1.5-2.7-3-1.9-5.2 1.2-1 1.7-2 3.2-2.4 2.7-.8 3.7 1.6 5.1 3.1zm583.9 1.7c.5 1.7-1 2.5-1.2 3.7-1.5 1.2-3.9 1.5-5.6 1-2.2-1.2-2.2-3.2-2.2-5.4 1.4-1 1.7-2.2 3.4-2.7 2.2 0 4.8 1 5.6 3.4zm-15.1.8c1 2.9-1.7 4.4-3.7 5.2-1 .2-2.4-.5-2.7 1 6.3 3.2 10.3 8.3 15.1 13v2c-8.8-.2-17.8-2.4-24.1-9.3-1.7-1.2-4.6-1.2-6.6-2.9 3.2-3.2 9-2 13.4-2.2 3.2-3.4-3.7-5.9.5-8.8 1.5-.3 2.4-1.7 4.4-1.2 1.7.4 2.7 1.7 3.7 3.2zm-99.8.2c.5 1.2-1 2.7-1.2 3.9-1.5 1.5-3.7 1.7-5.4 1-1.2-1.7-3.2-3.2-2.4-5.7 2-3.6 8.3-2.9 9 .8zm-545 8.6c-.8 2.2-1.7 3.7-4.1 3.9-2-.3-3.7-1-4.4-2.9-.2-1.7 1-2.7 1.2-3.9 2.6-2.3 7.5-.8 7.3 2.9zm19.7-3.2c0 3.4-3.7 5.4-4.9 8.8-3.7 8.1-10.2 15.5-19.5 16.2-1-2.2 3.2-4.9 4.1-7.1 3.9-8.3 11.7-12.8 18.8-17.9h1.5zm519.5 3.4c.2 2.7-2.2 4.7-4.2 5.7-2.2.7-3.9-1-5.1-2-2-2-.7-3.9.2-5.9 3-2.9 7.2-.5 9.1 2.2zm15.1 1.8c-.3 2.7-1.9 4.7-4.4 5.4-.5-.8-1.7-.3-2.4-.5-1.7-1-3.2-2.5-3.2-4.4 1.2-1.2 1.7-3.2 3.4-3.4 2.2-.3 5.9-.1 6.6 2.9zm-496.8-.3c.3 2.7-1.7 4.2-3.7 5.1-2.2.3-3.6-1.2-4.6-2.9-.5-2.2 1.7-3.7 2.9-4.9 3-1 3.7 1.2 5.4 2.7zm16.8 1c-.7 2.2-2.2 3.7-4.6 4.2-1.7-.5-3.7-1-4.4-2.9-.2-2.5 1.7-3.7 3.4-4.9 2.4-.1 5.1.9 5.6 3.6zm532.4 17.2c1.2 1 3.4 2.2 2.9 3.9-3.9 1.7-7.1-2.7-10.7-3.4-5.9-5.9-10.3-12.3-12.7-19.6 2.2-2.2 4.6.5 6.6 1.2 5.6 4.6 11 10.8 13.9 17.9zm9-17.2c.7 1.7.5 3.7-.5 5.4-1.5 2.5-4.6 2-6.8 1.5-1.2-1.5-3.4-3.4-1.9-5.6.7-2 2.9-2.5 4.6-3.2 1.7-.3 2.9 1.2 4.6 1.9zm-519 6.4c.2 2 .7 4.9-1.7 6.1-2.2.5-5.1-.3-5.8-3-1.2-2.9 1.4-3.4 2.9-4.9 2-.4 3.2.6 4.6 1.8zm456.9 15.9c3.4 4.9 5.8 11 6.3 17.4-.7 1.7 1.2 3.4-.2 4.7h-1c-11-7.9-13.4-18.9-17.5-30-1-.5-1.2-1.5-1-2.5 2.4-2.2 4.1 2.2 6.6 2.9l6.8 7.5zm-425.2-8.3c-.2.2 0 .5.2.5-9.8 6.9-23.4 11-34.6 4.4-.3-.7.2-2 1.2-2.2 7.1-2.2 13.9-5.7 21.5-4.7l11.7 2zm-55.6 1.2c-8.3 5.1-15.8 15.2-26.1 17.7-2 .7-3.2 3.4-5.6 2 4.4-13.3 18.8-20.4 31.7-21.6v1.9zm466.4 11.1c.7 2 0 4.7-2 5.2-1.2 1.2-3.7 1.2-4.6 0-2.2-1-2.2-3.2-2.2-4.9.7-1.7 2.4-2 3.6-2.7 2.3.4 4 .4 5.2 2.4zM708 288c-1.5 3.4-5.6 5.4-8.8 6.4-8.3 2.9-15.9-1-23.2-3 .2-2 2.7-1.2 3.9-2.4 8-1.7 16.3-3.4 24.8-1.2.8-.5 2.5-.8 3.3.2zm-446.2 7.1c-.7 1-1 3.2-2.9 3.9-1.7.7-3.4 0-4.9-1-.5-1.5-2.2-2.7-1-4.4.5-1.7 2.4-2.2 3.9-2.7 2.5.3 4.5 1.8 4.9 4.2zm14.4 2.2c-.7 1.5-1.5 3.7-3.4 4.7-1.9.5-3.4-.5-4.9-1.7-.7-1.5-1.5-3.2-.7-4.9.5-1.2 2.2-1.5 3.4-2.2 2.5-.3 4.7 2.2 5.6 4.1zm447.4 2.5c.2 2-.7 3.2-1.7 4.7-1.2 1.7-3.7 2-5.4 1-1.7-.3-2.2-2.2-2.9-3.4-1.5-2 1-3.2 1.7-4.9 2.7-2.3 7-1.1 8.3 2.6zm10.7-.5c.2 1.2 1 2.4.5 3.4-1.5 1.2-2.4 4.4-5.4 3.2-1.4.5-2.2-1.5-2.9-2-1-2.5-.2-6.1 2.9-6.6 2.2-.7 3.7 1.3 4.9 2zm-466.8 7.1c.5 2.7-.5 5.2-2.4 6.6-2.7.5-6.1.5-7.1-2.7-.2-2.4 0-5.6 2.9-7.1 2.4-.2 5.3.3 6.6 3.2zm13.9-1c-.5 6.9-1.9 15.2-8.8 19.1-3.9.7-7.8 4.4-11.7 2v-1.2c5.1-7.4 14.4-13 20.5-19.9zm403.9 5.7c1 1.5-.7 2.7-1.4 3.9-1.4 1.7-4.1 1-5.8.3s-2-3.2-1.2-4.9c.5-1.5 1.9-2.2 3.2-2.7 2-.3 4 1.7 5.2 3.4zm-379.6 11.3c3.4 5.7 1.5 13.3 3.4 19.4-4.2.5-5.9-4.2-8.5-6.6-5.4-7.4-4.6-17.2-7.1-25.8.5-.7 1.2-.7 1.7-.5 3.6 2.4 6.3 7.1 9.3 10.3-.5 1.7 1.5 1.7 1.2 3.2zm391.8-9.4c0 2-2.2 2.5-3.4 3.7-1.7-.2-3.2-1-4.6-2.2-.7-2.4 1.2-3.2 2.4-4.4 2.4-1 4.8.2 5.6 2.9zm29 21.9c0 .7-.2 2.2-1.5 1.7h-1c-7.1-6.4-14.1-13.5-13.2-23.3l1.5-.2c6.6 5.6 14 11.7 14.2 21.8zm-18.3-7.9c.2 2-1 3.4-2.2 4.7-2.7.7-6.8.5-7.3-3.2-.2-2.5 2.5-3.7 3.7-4.9 2.9-.7 4.8 1.2 5.8 3.4zm-16.1 5.2c-3.4 9.1-12.7 13.8-19 20.6-1.2-.7-.7-2.7-.5-3.7 2.4-9.3 9.8-18.4 18.8-22.1 3.9.5 0 3.2.7 5.2zm18.3 7.4c0 2.2-2.2 3.2-3.4 4.4-2-.2-3.9-.7-5.4-2.7-.2-2.5 1.7-3.2 3.2-4.4 2.4-.5 4.6.7 5.6 2.7zM529-106.2c3.3 0 6 2.7 6 6.1s-2.7 6.1-6 6.1h-72.3c-3.3 0-6-2.7-6-6.1 0-3.3 2.7-6.1 6-6.1H529zm-51.1 10.5c7.1 0 .4-8.6-3.4-8.6h-7c-7.1 0-.4 8.6 3.4 8.6h7zm29.6 0c7 0 .4-8.6-3.4-8.6H497c-7.1 0-.4 8.6 3.4 8.6h7.1zm21.8-8.6h-2.7c-7.1 0-1.1 8.6 2.7 8.6 4.8 0 5.1-8.6 0-8.6zm-6.6 81l13.8 5.3 13.6-5.3L544.7-3l10.7-2.2-3.7 12.3 3.7 11.8-9.6-2.6 4.2 21.9-13.6-5.3-13.8 5.3 5.6-21.9-11 3.1 2.9-12.3-2.9-11.8L527.7-3l-5-20.3zm20.4 36.7c3.1 0 3.4-4.3 3.4-8 0-8.4-6.6 0-10-7.9-2.5 6.7-9.3.5-9.3 7.6 0 4.9 0 8.2 4.9 8.2l11 .1zm-13.6-7.5c0 3.2 4.3 1.1 7.5 1.1s7.5 2.1 7.5-1.1c0-4.5-4.3-3-7.5-3s-7.5-1.6-7.5 3zm-39.2.7V4.1l-2.3-.5 1.8-1.9-1.1-2 2.4.2 1.4-2.5 1.4 2.5 2.4-.2-1.1 2 1.8 1.9-2.3.5v2.5L492.5 5zm-10.7 13.8v-2.5l-2.3-.5 1.8-1.9-1.1-2 2.4.2 1.4-2.5 1.4 2.5 2.4-.2-1.1 2 1.8 1.9-2.3.5v2.5l-2.2-1.6zm18.2-1.7v-2.6l-2.3-.4 1.8-1.9-1.1-2.1 2.4.3 1.4-2.5 1.4 2.4 2.4-.2-1.1 2.1 1.8 1.9-2.3.4v2.6l-2.2-1.6zM500 29v-1.5l-1.3-.2 1-1.1-.7-1.1 1.4.1.8-1.4.8 1.4 1.4-.1-.7 1.1 1 1.1-1.3.2V29l-1.2-.9zm-16.9 11.8v-4.4l-4-.8 3.1-3.2-1.9-3.6 4 .5 2.5-4.3 2.4 4.2 4.1-.4-1.9 3.6 3.1 3.2-3.9.8v4.4l-3.8-2.8zm8.6-231.6l8.5 21.1 21.8-6.4-11.1 19.9 18.6 13.2-22.4 3.7 1.4 22.8-16.8-15.3-16.9 15.3 1.4-22.8-22.4-3.7 18.6-13.2-11.1-19.9 21.8 6.4zM413 282.7c-2.6 1-3.6 1.7-3 4.4l3.1 12.9c.6 2.4.7 6.2-.9 8.5-1.9 2.8-5.9 4.6-8.8 5.2-2.1.5-6.7 1.4-10.4-.2-2.4-1-4-2.2-5.1-6.5l-3.2-13.6c-.8-3.4-2.1-3.2-4.8-2.8l-.2-1 16.3-3.9.2 1c-3.2.9-4.6 1.3-3.8 4.9l3.2 13.5c.5 2.3 1.9 7.9 8.8 6.2 8.5-2 7.1-8.3 6.5-10.9L408 288c-.6-2.5-1.5-3.7-5.7-2.9l-.3-1 10.6-2.6.4 1.2zm24.2 2.7c-1.5-2.7-5.4-6.7-11.2-5.4-2.5.6-4.9 2.4-4.3 5 .5 2.2 1.6 2.9 6.1 3.7l7.8 1.4c1.8.3 6 1.9 7 6.3.8 3.6-1.2 9.2-10.2 11.2-4.6 1-7.1.1-8.6.5-1 .2-1.1 1-1.1 1.7l-1.4.3-2.2-10.1 1.4-.3c1.9 3.9 5.7 7.9 11.9 6.5 5.8-1.3 5.2-5.4 5.1-5.9-.6-2.7-3.1-3.2-6.5-3.8l-3.5-.6c-9-1.5-9.8-5-10.2-6.9-.5-2.5-.3-8.3 9-10.4 3.9-.9 6.5 0 7.9-.3 1.1-.2 1.2-.9 1.3-1.7l1.5-.3 1.9 8.8-1.7.3zm32.2 16.1l-17.7 1.7-.1-1c3.6-.6 4.8-.8 4.4-4.3l-2.1-21.9c-3.4.5-8.5 1.2-8.9 7.9l-1.4.1-.6-8.4 29.7-2.8.9 8.3-1.4.1c-1.6-6.6-6.7-6.3-10.2-6.1l2.1 21.9c.4 3.5 1.5 3.5 5.2 3.4l.1 1.1zm41.3 0l-10.2-.2-10-13.3h-1.3l-.2 8.2c-.1 3.3 1 3.5 4.3 3.9v1l-16.8-.3v-1c3.4-.3 4.4-.4 4.4-3.8l.4-18.4c.1-3.6-1.5-3.7-4.3-3.9v-1l16 .3c3.5.1 14 .6 13.9 7.6-.1 5.1-5.3 6.3-7.9 7l9.8 12.1c.7.8 1.4.8 2 .8l-.1 1zm-21.5-14.8c6.5.1 9.1-.8 9.2-6.2.1-4.2-1.9-6.1-5.9-6.1-2.8-.1-2.8.4-3.1 1.7l-.2 10.6z"/><path class="st0" d="M543.4 305.7l-16-2 .1-1c3.1.2 4 .2 4.1-1.1.1-1.1-1.1-4.4-1.6-5.8l-11.1-1.4c-1.8 2.8-2.8 4.4-2.8 5.1-.2 1.6 2.2 2 3.8 2.3l-.1 1-10-1.3.1-1c2.7 0 3.6-1.3 5.4-4.2l13.8-21.3 1.4.2 8.3 23.2c1.7 4.7 2.3 6.2 4.7 6.4l-.1.9zM529.5 294l-3.7-10.7-5.9 9.5 9.6 1.2zm42.8 17.6l-28.3-5.2.2-1c2.8.2 4.3.4 4.7-2.1l3.6-19.9c.5-2.7-1.5-3.2-3.7-3.7l.2-1 17.1 3.2-.2 1c-3.5-.5-5-.7-5.6 2.9l-3.5 19.4c-.4 2 .7 2.5 3.9 3.1 7.4 1.4 10.8-1.5 13.8-5.8l1.4.3-3.6 8.8zm18.8 4.2l-17.1-3.6.2-1c2.7.3 4.6.6 5.1-2l4.1-19.8c.6-2.7-1.7-3.3-3.9-3.9l.2-1 17 3.6-.2 1c-2.3-.4-4.7-.8-5.2 1.9l-4.1 19.8c-.5 2.6 1.4 3.1 4 3.9l-.1 1.1zm34.6 4.4l-16-1.7.1-1c3.1.1 4 .2 4.1-1.2.1-1.1-1.2-4.4-1.7-5.8l-11.1-1.1c-1.7 2.8-2.7 4.5-2.7 5.1-.2 1.6 2.2 1.9 3.9 2.2l-.1 1-10-1 .1-1c2.7-.1 3.6-1.4 5.3-4.4l13.3-21.6 1.4.1 8.8 23c1.8 4.7 2.4 6.2 4.8 6.3l-.2 1.1zm-14.1-11.4l-4-10.6-5.7 9.6 9.7 1zM498.5-16.5c0-10-5.6-.6-8.7-9.1-2.3 7.2-9 1.1-9 8.9 0 3 .8 4.7 2.2 5.6v3c0 .8.6 1.4 1.4 1.4H495c.8 0 1.4-.6 1.4-1.4v-3.2c1.2-1.2 2.1-2.9 2.1-5.2zm-8.7 1.9c-2.9 0-6.9 2-6.9-1.4 0-4.9 3.3-3.8 6.3-3.8 2.9 0 7.5-1.1 7.5 3.8 0 3.4-4 1.4-6.9 1.4zm96 121.1c2.5 0 4.6-1.8 4.6-4.1 0-2.2-2.1-4.1-4.6-4.1s-4.6 1.8-4.6 4.1 2 4.1 4.6 4.1zM564.1-42s-2.2 3.6-2.2 4.3c0 1.3 1 2.4 2.2 2.4 1.2 0 2.2-1.1 2.2-2.4l-2.2-4.3zm-147.2 0s-2.2 3.6-2.2 4.3c0 1.3 1 2.4 2.2 2.4s2.2-1.1 2.2-2.4l-2.2-4.3zm36.8 0s-2.2 3.6-2.2 4.3c0 1.3 1 2.4 2.2 2.4s2.2-1.1 2.2-2.4l-2.2-4.3zm36.8 0s-2.1 3.6-2.1 4.3c0 1.3 1 2.4 2.2 2.4s2.2-1.1 2.2-2.4c-.1 0-2.3-4.3-2.3-4.3zm36.8 0s-2.2 3.6-2.2 4.3c0 1.3 1 2.4 2.2 2.4s2.2-1.1 2.2-2.4c.1 0-2.2-4.3-2.2-4.3zM417 8.6s2.2 3.6 2.2 4.3c0 1.3-1 2.4-2.2 2.4s-2.2-1.1-2.2-2.4c-.1-.1 2.2-4.3 2.2-4.3zm0 49.1s2.2 3.6 2.2 4.3c0 1.3-1 2.4-2.2 2.4s-2.2-1.1-2.2-2.4c-.1-.1 2.2-4.3 2.2-4.3zm5.9 38.8s2.2 3.6 2.2 4.3c0 1.3-1 2.4-2.2 2.4s-2.2-1.1-2.2-2.4c-.1 0 2.2-4.3 2.2-4.3zm30.8 20.7s2.2 3.6 2.2 4.3c0 1.3-1 2.4-2.2 2.4s-2.2-1.1-2.2-2.4c0-.1 2.2-4.3 2.2-4.3zM566 8.6s-2.1 3.6-2.1 4.3c0 1.3 1 2.4 2.2 2.4 1.2 0 2.2-1.1 2.2-2.4-.1-.1-2.3-4.3-2.3-4.3zm0 49.1s-2.1 3.6-2.1 4.3c0 1.3 1 2.4 2.2 2.4 1.2 0 2.2-1.1 2.2-2.4-.1-.1-2.3-4.3-2.3-4.3zm-5.9 38.8s-2.2 3.6-2.2 4.3c0 1.3 1 2.4 2.2 2.4 1.2 0 2.2-1.1 2.2-2.4l-2.2-4.3zm-30.9 20.7s-2.1 3.6-2.1 4.3c0 1.3 1 2.4 2.2 2.4 1.2 0 2.2-1.1 2.2-2.4 0-.1-2.3-4.3-2.3-4.3zm-37.5 21.9s-2.2 3.6-2.2 4.3c0 1.3 1 2.4 2.2 2.4s2.2-1.1 2.2-2.4c0-.1-2.2-4.3-2.2-4.3zm59.9-73.2c.5.7 1.6.9 3.1.4l1.4-4c.1-.3-1.6-1.9-2.6-1.6-3.9.9-8.1 1.4-10.4 5.1 0 2.6 1.9 4.9 3.7 6.1 1.4-.5 1.6.9 2.5 1.6.2 1.2-.5 2.1-1.6 2.1-2.8-2.8-7.7.9-9.7-2.6.9-3.5 2.8-7.5-.2-10.7.2-.7 1.4-1.4.7-2.1-1.2-3.3-4.7-.7-6.7-.7-3.5-.5-6.3 1.4-8.3 4.2.2 1.2.7 2.3 1.8 3.5.9-.2 1.4 0 1.6.9l-2.3 1.4c.7.7.7 1.6.9 2.6-1.6.7-3.2-1.6-4-2.8 0-1.9.2-5.1-2.3-5.6-.5 0-2 .7-2 .7-.5.7-.9 2.2-.9 3.9s.9 4.2.9 4.2 7.2 5.3 8.8 8.5c-2.1 4.2-2.1 10-6.9 12.4-1.4.9-1.4 2.3-1.4 3.7l1.2.9c3-1.6 8.8-2.1 8.3-7.2 1.1-2.1 2.3-4.4 4.4-6.1 2.3-.5 4.4.7 5.3 2.6-.7 3.5-3 5.8-6.2 7-.4.5-.2 1.2-.2 1.9.9 1.6 3.5.9 4.9.7 3.9-2.6 5.6-7.2 9-8.6.5 2.3-4.6 3-1.4 5.4 2.1-.5 4.9.2 6.3-2.6-1.6-4 5.5-5.8 1.1-9.3 0-3.5 3.7-4.9 3.5-8.6-1.4-3.7-5.8-3.7-6.9-7.2 1.1-1.1 3.2-.8 4.6-.1zm-169.2 42.4c2.5 0 4.6-1.8 4.6-4.1 0-2.2-2.1-4-4.6-4-2.6 0-4.6 1.8-4.6 4 0 2.3 2.1 4.1 4.6 4.1zM143.6 247.8c2.5 0 4.5-1.9 4.5-4.3s-2-4.3-4.5-4.3-4.5 1.9-4.5 4.3c0 2.3 2 4.3 4.5 4.3zm152 33.8h-.3l-.3-.4v.2c0 .1 0 .1.1.1h-.5c.1 0 .1 0 .1-.1v-.5c0-.1 0-.1-.1-.1h.5c.1 0 .4 0 .4.2 0 .1-.2.2-.2.2l.3.4zm-.6-.4c.2 0 .3 0 .3-.2 0-.1-.1-.2-.2-.2s-.1 0-.1.1v.3z"/><path class="st0" d="M296.2 281.1c0-.1-.1-.2-.3-.2-.1 0-.2 0-.2.1s0 .1.2.1l.2.1s.1.1.1.2-.1.3-.4.3h-.2v-.3c0 .1.1.3.3.3.2 0 .2-.1.2-.1 0-.1-.1-.1-.2-.1h-.1c-.3-.1-.3-.2-.3-.3 0-.1 0-.2.3-.2h.2l.2.1zm1.6-.3c-.1 0-.1 0-.1.1l-.3.7-.2-.6-.3.6-.3-.7c0-.1-.1-.1-.1-.1h.4c-.1 0-.1 0-.1.1l.2.4.2-.4-.1-.1h-.1.5-.1v.1l.2.4.2-.4c0-.1-.1-.1-.1-.1h.1z"/><path class="st0" d="M297.8 281.6c.1 0 .3-.1.4-.3h-.2c-.1 0-.3 0-.3-.3 0-.1 0-.3.3-.3.1 0 .3.1.3.4.1.3-.1.5-.5.5zm.3-.3c.1 0 .1 0 0 0 .1 0 .1-.1.1-.1 0-.2 0-.3-.1-.3s-.1.1-.1.2.1.2.1.2zm.5-.2h.3c.1 0 .2.1.2.2 0 .2-.2.3-.4.3-.1 0-.2 0-.2-.1 0 0 0-.1.1-.1s.2.1.3.1.1 0 .1-.1-.1-.1-.2-.2c-.1 0-.2 0-.2-.1v-.4h.5l-.1.2h-.4v.2zM576.4-47.8l-169.9-.1v.1h-.1l.2 129.8c0 13.2 5.6 24.8 13.3 28.4l65.3 41.5c1.4 1.6 3.6 2.7 6 2.7 2 0 3.9-.8 5.3-2.1l66.4-42.1c7.7-3.6 13.4-15.1 13.4-28.4l.1-129.8zm-4.8 131.6c-.9 9.8-4.2 18-11 22.6l-64 40.7h-.4c-1.3 1.1-3 1.7-4.9 1.7s-3.7-.7-5-1.8l-63.9-40.7c-6.8-4.6-10.1-12.8-11-22.6v-127h160.3V83.8h-.1z"/><path class="st0" d="M514.3 141.4l2-1c-.8.3-1.4.7-2 1zM386.1 318.9l-16 1.9-.1-1c3-.6 3.9-.7 3.8-2.1-.1-1.1-2.1-4-2.9-5.3l-11.1 1.3c-1 3.1-1.6 4.9-1.6 5.6.2 1.6 2.6 1.4 4.3 1.3l.1 1-10 1.2-.1-1c2.6-.6 3.2-2.1 4.3-5.4l8.4-24 1.4-.2 13.5 20.5c2.7 4.2 3.7 5.5 6 5.1v1.1zm-16.1-8.1l-6.2-9.5-3.5 10.6 9.7-1.1z"/><path class="st0" d="M667.5 258c-2.9-7.6-9-12.8-16.6-15.2-7.8-1.7-16.1-.5-21.2 5.4-8.8 7.1-2.7 18.9-2.4 28.5 0 2 .3 3.4-1.7 4.4-35.3-3.2-68.3-12-103.4-15.7-8.1-1.4-16.2-1-23.8-2.7l-9.8-1c-30.5 1-60.9 2.7-89.5 10.1-6.1 2-12.9 2.4-19 4.7-4.4-.7-8 2.4-12.2 1.2l-8 1.9c-.7.1-1.6.1-2.7-.2-3.9-10.1 7.8-16.2 4.1-26-3.2-5.6-9.5-11-16.8-10.1-8.3-1-15.6 3.7-19.5 10.1-5.6 12.3 1.5 25.1 3.7 37.1-.5 3.9 3.9 8.3 0 11.5-7.8-5.4-18.1-8.4-27.5-5.6-2.9 1.5-8.3-.5-9.7 2.9 10.5 5.6 23.9 4.9 35.6 4.4 1.5-.5 2.5-.7 3.7.3 1 6.4-1.2 15 2.7 20.6 4.4 5.9 11.7 7.4 18.7 8.1 22.4-.7 42.4-7.4 62.9-12.5 3.2-.2 5.6-2 9-2 11-2.5 22.9-4.4 34.6-4.7-5.1 6.6-8 14-10.2 22.1-2.9 6.6 5.1 7.6 7.6 11.3-7.6 2.2-12.9 7.4-20 10.3-15.6-.5-28.8 5.4-43.4 7.1-.2 3.2 5.1 2.2 5.6 5.4-.7 2.2-2.9 2.5-4.6 3.7-.3 1.5 0 1.7 1.5 2 1.5-1.7 4.6-.5 6.1-2.2 4.9 0 9-1.5 13.6-1.7 4.1-1.7 8.8-2 12.4-4.9 5.1-1.5 8.3-4.9 13.4-6.4 7.3 0 13.9-2.5 20.7-3v1.5c-5.6 9.1-11.5 18.4-17.3 27-1 1.7.2 3.4 1.7 3.9 3.4 1 6.8 0 9.5-1.5 5.1-8.8 9.7-17.2 13.9-26.3 1.7-8.3 7.8-12.8 13.9-18.4 1-.5 2.4-2 3.4-.5-4.9 5.6-8 11.1-11.7 17.2-2 6.9-2.5 15.7 3.6 21.4 2.9 2.5 7.3 1.7 11.2 2 9.5-4.9 21.7 2.9 29-6.4 4.4-.7 5.1 4.4 7.6 6.9 4.1 1.2 8.5 5.4 12.7 2.4-.3-2.7-3.2-5.2-4.6-7.6-2.9-5.2-6.6-9.3-9.3-14-1.2-3.4-3.4-5.6-3.9-9.1 4.4 1.5 8.3 4.4 13.2 5.2 4.1 1.7 9.2 1.5 13.1 3.9 3.2 4.2 8 6.6 12.2 9.3 6.1 2.9 12.9 3.4 19.2 5.9 2.4.2 6.1 2.2 7.8 0-1-1.2-2.2-2-3.7-2.7-.7-3.2 4.4-1.5 6.1-3.9-.6-1.2-1.7-1.7-2.8-1.9-3.5-1.9-12.2-2.5-14.5-3.8-2.9-.5-5.6-1.7-8.5-2.7-14.6 0-22.7-13.3-34.4-18.2 2.7-2.5 6.8-4.4 8.5-8.1 2.2-3.4 2.9-9.1.7-13-2.2-7.6-11.9-6.6-17.5-10.8l.7-.7c9.5-.5 17.8 1.7 26.3 3.4 23.4 3.2 45.1 12 69.5 12.5 13.4 0 30.2.7 36.8-12.3 1.2-7.6 2.7-15.2 3.9-22.8 3-12.2 11-23.5 9.8-37zM404.2 370l-3.4-3.2c1.7-2.2 5.4-1 8-2.5 6.3-2 13.7-4.4 20.7-2.9-7.2 5.9-16.8 6.6-25.3 8.6zm152.2-3.9c5.8 2.6 17.5 5.2 26 6.2-.8 3.3-6.7.2-6 4.9-7.5-2.9-16.3-4.4-21.9-10.3.4-.3.9-1.1 1.9-.8zM327.7 261.7c.7-4.4 1.7-9.1 5.8-12.3 5.9-3.2 13.9-2.4 19.3.8 1.7 1 2.9 2.4 3.9 4.6 1.2 4.2-.8 8.6-3.7 11.1h-2.4c0-3.9 0-7.9 1.5-11.1-.2-2.9-2.7-3.2-4.6-4.4-4.1-1.2-7.8.7-11 2.5-2.4 2.9-4.6 6.6-3.2 10.8 1.7 2.7.2 6.4 1.2 9.3l-.7 1c-3-3.2-6.9-6.6-6.1-12.3zm11.4 7c3.7 2.7 8.8 1.5 13.2 2.2.7 2.7.7 6.1-1.2 8.4-4.1-1-9.5-.5-11.7-4.4.5-1.7-.8-4.2-.3-6.2zm-.7-8.2c.7-2 0-4.9 2.7-5.4 1.7-.5 4.4-.5 4.6 1.5-.2 3-.5 5.9-1.2 8.6-3.4.2-5.1-1.8-6.1-4.7zm114.3 78.8c-1.2-8.6 2.2-16 7.8-22.1 3.4-.7 7.3-1.5 10.5.5-6.3 1.7-14.4 3.2-15.8 11.3.2 3.2-.8 4.9.7 7.6 2.7 4.7 8.8 2.7 12.2 6.4 0 1.2-1 2.7-2.2 3-4.2-2.5-9.3-3.5-13.2-6.7zm-8.7 17c5.9-2.5 12-7.6 18.5-5.4-4.6 3.6-12.2 5.1-18.5 5.4zm23.1 2.4c-3.4 7.8-7.3 15.5-11.9 23.1-.5 1.2-2.5 1.5-3.9 1.7 0-3.4 3.4-6.1 4.9-9.1 5.1-6.6 6.6-13.8 12.4-20.1 1.4 1.5-1.5 2.5-1.5 4.4zm6.1-14.2v1h-.5v-1.3h1c-.2 0-.7 0-1 .2l.5.1zm-2.2-6.7c-4.2-.5-8.1-1.7-11.7-2.9-2.4-2.5 0-5.2 0-7.9 3.4-5.4 13.2-8.1 17.8-3.2-.7 5.4-2.7 10.1-6.1 14zm5.4 0c.7-3.2 2.2-7.4 3.9-10.3-.3 3.2-1.7 7.6-3.9 10.3zm2.7-19.9c-3.2-.7-4.9-4.4-8.3-4.4 2.9-1 5.8-.7 9.3-.2 1.1 1.7-.8 3.2-1 4.6zm2.9 7.4h-.3v-2.7h.3v2.7zm.2 11.3c-.3-1 .5-2.2.7-3.4 1.2-1.2 2.4 1 2.9 1.7-.6 1.2-2.1 2-3.6 1.7zm3.7-15.2c1.2-3.4 1.4-6.4 3.6-9.1 2.4 0 4.6 0 6.6 1 .5 4.9 6.6 11.5 0 15.7-2.2 1-5.4 3.2-7.8 1-3.1-2.7-3.6-5.2-2.4-8.6zm17.8-6.9c-.5-2.2 2.2-.5 3.2-1.5l7.6.5c-4-.5-8.9 8.6-10.8 1zm12.2 3.2c-2.9 1-5.1 4.4-8.1 5.2 1.5-2.7 5.2-5.4 8.1-5.2zm-10.3 15.2v.7h-.2v-.7h.2zm.5 15c-.2.5.3 1.2-.5 1.7l-5.6-4.4c2.7-.5 4.7.7 6.1 2.7zm-6.6-7.6c.5-.5 1.7-.5 2.2 0h-2.2zm-3.4-3.7c1-1.5 2.2-3.7 3.9-3.7 0 .2.2.5.5.7-1.4 1.3-2.7 2.5-4.4 3zm-5.6-.5h-1l1.5-1.5c.7.5-.2 1-.5 1.5zm.8 9.3c3.2-3.4 6.1 2 7.3 4.7 3.7 5.4 13.2 10.3 9.5 17.7-4.6 4.2-11.9.3-17.1 3.5-2.7-.3-7.3.5-8.8-2.2 2.7-7.9 5.1-16.8 9.1-23.7zm-6.9 4.7l1.2-2c-1.9 5.9-4.9 12-8 17.7-1.5-5.9 4.6-10.5 6.8-15.7zm10.8 29.2c-4.6.3-11.7 3-16.1-1 .2-2-1.9-2.9-1.7-4.9 3.9-1.5 7.3 3.2 11-.3 5.6.3 11.5-.7 17.1.5 2.7.7 6.8-4.4 7.3.7-2.1 8.2-11.8 2.6-17.6 5zm14.1-35.3v-.8h.5v.7l-.5.1zm1.4 15.4c.3 2.5 2.7 3.4 1.2 5.7-.4-1-1.9-3.2-1.2-5.7zm6.9 14.8l-1.2.5c-1.2-1-.7-3.7-.5-5.2 1.4 1.2 2.6 3 1.7 4.7zm12.2 5.9c-.2.7-1.5.7-1.9.2-7.3-9.3-10.7-19.1-15.4-29.5l1-.2c5.8 9.6 10.4 20.1 16.3 29.5zm9-22.6c-.5.2-.5.7-.5 1-7.1.3-11.7-3.9-17.1-7.6l-.3-1.2c6.7.4 12 4.6 17.9 7.8zm-6.3-32.7c2.9.7 3.1 3.9 3.4 6.4-.3 5.4-3.2 10.1-8.3 12-2.7 1.5-6.8 2-9.5 1 5.8-.2 12.2-2.4 14.6-8.4l-.2-11zm-5.4-1c1.2 3.4 3.4 6.6 2.2 10.8-2.4 4.7-7.3 4.7-11.7 5.6-2.2.3-3.9-.5-5.6-1.7.2-1-.2-1.7-1-2.4.7-3.2-5.6-6.4-1.2-9.1 3.9-3.7 13.1-12 17.3-3.2zm123.8-17.9c-2 2.4-.2 6.4-2.7 8.6 0 4.4-3.7 6.6-6.8 8.3-29 6.4-57.5-3.4-85.6-8.3-39.3-8.6-85.1-11-125.1-2-18.8 3.4-37 7.9-55.1 13-11.2 1.5-23.4 3.2-34.1-.2-8.8-4.2-5.1-15.5-7.8-23.3.5-6.1-1.7-11-1.9-16.9-.7-2-1.2-4.4-1-6.4 3.6.5 7.3 3.2 11.2 4.2 20.5 3.9 38.8-2.7 57.8-6.1 18.3-3.9 37-7.1 56.3-8.6 21.9-.2 44.4-1.5 65.3 2.2 6.8.2 12.7 2 19.2 2.4 13.7 1.7 26.3 5.4 40.2 6.4 2.2.7 4.9.7 7.3 1.2 21.9 3.4 46.6 9.6 67.5 0 .2 8.8-3.5 16.9-4.7 25.5zm-6.8-29.9c.2 3.9-3.4 2.9-5.4 4.4h-5.9c-1.2-2-.7-4.9-.7-6.9 3.9.7 8.3.7 12 2.5zm-2.7-6.2c2.7-2.7-.7-18.2 6.8-8.1 0 2 .3 4.9-1.7 6.4-1.2 1-3.1 3-5.1 1.7zm19.8-2.4c-2.2 4.4-5.6 7.6-10.5 8.4.2-5.9 5.6-10.1 3.7-16.7-3.2-4.7-9.5-6.1-15.4-4.9-2.2 1.5-1.2 3.9-1.9 6.1l-1 8.1c-4.9 0-5.1-4.4-6.6-7.9.2-5.1 2.5-10.3 7.6-12.8 3.9-2 10.2-1.7 14.1.5 3.2.7 6.8 2.2 8 5.2 3.7 3.4 2.7 9.5 2 14z"/></svg>