<?xml version="1.0" encoding="utf-8"?>
<!-- Generator: Adobe Illustrator 21.0.2, SVG Export Plug-In . SVG Version: 6.00 Build 0)	-->
<svg version="1.1" id="Layer_1" xmlns="http://www.w3.org/2000/svg" xmlns:xlink="http://www.w3.org/1999/xlink" x="0px" y="0px"
	 viewBox="0 0 260 260" style="enable-background:new 0 0 260 260;" xml:space="preserve">
<style type="text/css">
	.st0{fill:url(#SVGID_1_);}
	.st1{fill:#FFFFFF;}
</style>
<radialGradient id="SVGID_1_" cx="330.2361" cy="-81.8386" r="451.694" gradientTransform="matrix(0.52 0 0 -0.52 45.9185 10.5193)" gradientUnits="userSpaceOnUse">
	<stop	offset="0" style="stop-color:#25819E"/>
	<stop	offset="0.42" style="stop-color:#145B77"/>
	<stop	offset="0.786" style="stop-color:#08415B"/>
	<stop	offset="1" style="stop-color:#043751"/>
</radialGradient>
<path class="st0" d="M0,0h260v260H0V0z"/>
<g id="JlBd6H.tif">
	<g>
		<g>
			<path class="st1" d="M41.7,160.2c0-48.3,0-85.8,0-134.4c58.9,0,117.8,0,176.6,0c0,44.9-0.3,89.5,0,134.4
				c0.3,14.3-5.3,24.3-17.7,31.7c-22.4,13.5-44.6,26.9-66.5,40.9c-3.2,1.8-5.5,2.1-9,0c-20.6-12.9-40.9-25.6-61.5-38
				C53.8,189.2,41.7,180,41.7,160.2z M130.1,120.5c5.5,5,11.1,9.8,16.9,15.1c-0.5-8.4-0.8-15.1-1.3-22.4c7.1-1.3,14-2.4,22.2-3.7
				c-7.1-4.8-12.7-8.7-18.7-12.9c3.4-6.3,6.9-12.1,11.1-19.8c-8.4,2.4-14.8,4.2-21.9,6.3c-2.6-6.9-5.3-13.2-8.7-21.1
				c-3.2,8.2-6.1,14.3-8.7,21.1c-7.1-1.8-13.5-3.7-21.7-6.3c4.2,7.7,7.9,13.7,11.4,19.8c-6.3,4.2-11.9,8.2-19,12.9
				c8.7,1.3,15.3,2.6,22.4,3.7c-0.5,7.4-0.8,14-1.3,22.7C119.6,130,124.8,125.3,130.1,120.5z M130.1,148.3c-11.6,0-23.2,0-34.6,0
				c-4.2,0-8.4,0.5-8.4,6.1c0,5.5,4,6.3,8.4,6.3c23.2,0,46.2,0,69.4,0c4,0,8.4-0.5,8.4-6.3c0-5.3-4-6.3-8.4-6.3
				C153.4,148.3,141.7,148.3,130.1,148.3z"/>
		</g>
	</g>
</g>
</svg>
