<?xml version="1.0" encoding="utf-8"?>
<!-- Generator: Adobe Illustrator 21.0.2, SVG Export Plug-In . SVG Version: 6.00 Build 0)	-->
<svg version="1.1" id="Layer_1" xmlns="http://www.w3.org/2000/svg" xmlns:xlink="http://www.w3.org/1999/xlink" x="0px" y="0px"
	 viewBox="0 0 66.9 79.5" style="enable-background:new 0 0 66.9 79.5;" xml:space="preserve">
<style type="text/css">
	.st0{fill:#FFFFFF;}
</style>
<g id="JlBd6H.tif">
	<g>
		<g>
			<path class="st0" d="M0,50.9C0,32.6,0,18.4,0,0c22.3,0,44.6,0,66.9,0c0,17-0.1,33.9,0,50.9c0.1,5.4-2,9.2-6.7,12
				C51.7,68,43.3,73.1,35,78.4c-1.2,0.7-2.1,0.8-3.4,0C23.8,73.5,16.1,68.7,8.3,64C4.6,61.9,0,58.4,0,50.9z M33.5,35.9
				c2.1,1.9,4.2,3.7,6.4,5.7c-0.2-3.2-0.3-5.7-0.5-8.5c2.7-0.5,5.3-0.9,8.4-1.4c-2.7-1.8-4.8-3.3-7.1-4.9c1.3-2.4,2.6-4.6,4.2-7.5
				c-3.2,0.9-5.6,1.6-8.3,2.4c-1-2.6-2-5-3.3-8c-1.2,3.1-2.3,5.4-3.3,8c-2.7-0.7-5.1-1.4-8.2-2.4c1.6,2.9,3,5.2,4.3,7.5
				c-2.4,1.6-4.5,3.1-7.2,4.9c3.3,0.5,5.8,1,8.5,1.4c-0.2,2.8-0.3,5.3-0.5,8.6C29.5,39.5,31.5,37.7,33.5,35.9z M33.5,46.4
				c-4.4,0-8.8,0-13.1,0c-1.6,0-3.2,0.2-3.2,2.3s1.5,2.4,3.2,2.4c8.8,0,17.5,0,26.3,0c1.5,0,3.2-0.2,3.2-2.4c0-2-1.5-2.4-3.2-2.4
				C42.3,46.4,37.9,46.4,33.5,46.4z"/>
		</g>
	</g>
</g>
</svg>
